<svg xmlns="http://www.w3.org/2000/svg" xml:space="preserve" width="395.271" height="53.331"
	overflow="visible"><path fill="#646567" d="M82.809 40.376V32.53H72.366c-2.916 0-4.612-1.431-4.612-3.923 0-1.166.371-2.12 1.219-3.339l14.101-20.25h5.354V27.07h2.916v5.46h-2.916v7.846h-5.619zm0-26.081L73.956 27.07h8.853V14.295zM93.888 31.206c0-4.559.371-6.361 1.802-8.588 2.015-3.18 5.832-5.194 9.701-5.194 6.414 0 11.715 5.301 11.715 11.662 0 6.308-5.248 11.609-11.397 11.609-2.385 0-4.559-.796-6.626-2.386v14.736h-5.195V31.206zm5.036-2.173c0 3.816 2.704 6.573 6.414 6.573 3.711 0 6.573-2.81 6.573-6.521a6.538 6.538 0 0 0-6.573-6.573c-3.552 0-6.414 2.915-6.414 6.521zM121.293 40.376V27.071c0-6.149 3.181-9.542 8.906-9.542.265 0 .742 0 1.272.053v5.036c-3.923.266-4.983 1.484-4.983 5.831v11.928h-5.195zM156.81 29.35c0 6.202-5.354 11.345-11.821 11.345-6.414 0-11.662-5.195-11.662-11.557 0-6.521 5.248-11.715 11.769-11.715 6.519 0 11.714 5.301 11.714 11.927zm-18.288-.265c0 3.604 2.916 6.521 6.52 6.521s6.573-2.969 6.573-6.468c0-3.657-2.916-6.626-6.52-6.626a6.571 6.571 0 0 0-6.573 6.573zM166.616 42.391c.212 3.498 2.385 5.831 5.46 5.831 1.908 0 3.87-1.113 4.771-2.704.583-1.007.848-2.491.848-4.771v-2.279c-1.961 1.537-3.976 2.227-6.467 2.227-6.361 0-11.609-5.302-11.609-11.662 0-6.361 5.301-11.609 11.769-11.609 3.71 0 7.262 1.908 9.436 5.089 1.431 2.067 2.067 4.718 2.067 8.322v10.231c0 3.869-.583 5.937-2.227 8.11-1.961 2.544-5.142 4.082-8.481 4.082-6.096 0-10.655-4.665-10.655-10.867h5.088zm-1.802-13.412c0 3.764 2.809 6.627 6.52 6.627 3.604 0 6.52-2.863 6.52-6.309 0-3.816-2.862-6.785-6.467-6.785-3.764 0-6.573 2.757-6.573 6.467zM188.19 40.376V27.071c0-6.149 3.181-9.542 8.906-9.542.266 0 .742 0 1.272.053v5.036c-3.923.266-4.983 1.484-4.983 5.831v11.928h-5.195zM218.247 40.376v-2.067c-2.067 1.59-4.241 2.386-6.627 2.386-6.148 0-11.396-5.302-11.396-11.609 0-6.361 5.301-11.662 11.715-11.662 3.87 0 7.687 2.014 9.701 5.194 1.431 2.227 1.802 4.029 1.802 8.588v9.171h-5.195zm-12.829-11.291c0 3.657 2.863 6.521 6.573 6.521 3.604 0 6.468-2.757 6.468-6.361 0-3.817-2.757-6.732-6.414-6.732-3.711-.001-6.627 2.862-6.627 6.572zM250.848 40.376V26.647c0-2.703-1.008-4.135-2.916-4.135-2.014 0-3.074 1.432-3.074 4.028v13.836h-5.195V26.647c0-2.862-.954-4.135-3.021-4.135-1.961 0-2.969 1.325-2.969 3.869v13.995h-5.194V26.912c0-3.074.265-4.294 1.271-5.884 1.432-2.279 3.923-3.604 6.786-3.604 2.279 0 4.028.689 5.672 2.173 1.325-1.378 3.34-2.173 5.672-2.173 2.81 0 5.301 1.272 6.785 3.445 1.007 1.537 1.378 3.021 1.378 5.938v13.57h-5.195zM283.926 40.376V26.647c0-2.703-1.008-4.135-2.916-4.135-2.014 0-3.074 1.432-3.074 4.028v13.836h-5.195V26.647c0-2.862-.954-4.135-3.021-4.135-1.961 0-2.969 1.325-2.969 3.869v13.995h-5.194V26.912c0-3.074.265-4.294 1.271-5.884 1.432-2.279 3.923-3.604 6.786-3.604 2.279 0 4.028.689 5.672 2.173 1.325-1.378 3.34-2.173 5.672-2.173 2.81 0 5.301 1.272 6.785 3.445 1.007 1.537 1.378 3.021 1.378 5.938v13.57h-5.195zM315.731 33.061a11.427 11.427 0 0 1-10.814 7.634c-6.308 0-11.608-5.354-11.608-11.662 0-6.415 5.194-11.609 11.556-11.609 3.287 0 6.202 1.272 8.429 3.604 1.696 1.803 2.81 4.241 2.81 6.149 0 1.325-.53 2.438-1.484 3.181-1.007.742-1.696.9-4.241.9h-11.556c.954 2.651 3.34 4.348 6.202 4.348 2.12 0 3.816-.849 5.195-2.545h5.511zm-4.717-6.414c-.849-2.491-3.233-4.135-5.99-4.135s-5.036 1.537-6.096 4.135h12.086zM320.237 40.376V27.071c0-6.149 3.181-9.542 8.905-9.542.266 0 .742 0 1.272.053v5.036c-3.923.266-4.983 1.484-4.983 5.831v11.928h-5.194zM347.325 23.519c-1.749-1.06-3.816-1.644-5.672-1.644-2.12 0-3.445.901-3.445 2.386 0 .689.371 1.166 1.113 1.484s.742.318 3.552 1.113c1.961.583 3.074 1.113 3.869 1.908 1.22 1.113 1.908 2.81 1.908 4.612 0 4.452-3.445 7.475-8.481 7.475-2.279 0-4.294-.425-6.732-1.326v-5.301c2.704 1.272 5.036 1.908 6.839 1.908 2.12 0 3.339-.848 3.339-2.279 0-1.325-.583-1.749-3.816-2.65-4.611-1.272-6.626-3.286-6.626-6.732 0-4.188 3.445-7.209 8.217-7.209 1.961 0 3.552.265 5.937 1.06v5.195z"/><path fill="#878889" d="M356.247 38.614c0 1.082-.896 1.979-2.041 1.979-1.113 0-2.01-.897-2.01-2.041 0-1.082.928-2.01 2.01-2.01 1.176 0 2.041.866 2.041 2.072zM367.596 40.376v-6.401c0-1.515-.124-2.257-.495-2.906s-1.206-1.113-2.01-1.113c-.835 0-1.67.433-2.072 1.082-.371.619-.494 1.237-.494 2.722v6.617h-3.03v-7.483c0-1.67.371-2.813 1.236-3.865 1.021-1.299 2.629-2.041 4.329-2.041 1.701 0 3.278.712 4.329 1.979.928 1.113 1.237 2.134 1.237 4.144v7.267h-3.03zM386.148 36.109a6.666 6.666 0 0 1-6.309 4.453c-3.68 0-6.771-3.123-6.771-6.803 0-3.742 3.03-6.772 6.741-6.772 1.917 0 3.618.742 4.916 2.103.99 1.052 1.64 2.475 1.64 3.588 0 .772-.31 1.422-.866 1.854-.588.434-.989.526-2.474.526h-6.741c.557 1.546 1.948 2.535 3.618 2.535 1.236 0 2.227-.494 3.03-1.484h3.216zm-2.752-3.741c-.495-1.453-1.887-2.412-3.494-2.412-1.608 0-2.938.896-3.557 2.412h7.051zM394.776 40.376c-1.887 0-3.309-.588-4.268-1.763-.742-.958-1.051-2.071-1.051-3.989V30.08H387.2v-2.907h2.258v-4.638h3.03v4.638h2.782v2.907h-2.782v4.607c0 2.041.618 2.721 2.566 2.752h.216v2.938h-.494z"/><path fill="#97BE0D" d="M37.168 40.072c0 1.229-.378 2.077-1.133 2.541-.524.333-1.295.5-2.314.5H32.64c-1.706 0-2.872-.167-3.495-.499-.789-.433-1.182-1.28-1.182-2.542v-3.289c0-.365-.176-.705-.527-1.02-.351-.316-.677-.474-.978-.474H15.417c-1.237 0-2.091-.399-2.56-1.199-.301-.53-.451-1.328-.451-2.392v-.948c0-1.728.19-2.934.574-3.615.382-.681 1.187-1.022 2.416-1.022h3.19c.598 0 1.021-.157 1.271-.47.249-.316.374-.689.374-1.121v-3.187c0-1.095.303-1.866.909-2.314.607-.448 1.315-.673 2.124-.673h3.337c.506 0 .859-.157 1.061-.472s.304-.656.304-1.02V13.57c0-1.26.414-2.106 1.243-2.538.563-.297 1.427-.447 2.587-.447h.896c2.189 0 3.516.298 3.98.895.331.432.498 1.645.498 3.637 0 1.761-.151 2.939-.454 3.537-.404.796-1.229 1.195-2.473 1.195H30.76c-.539 0-.909.208-1.111.621-.202.414-.303.903-.303 1.467v.894c0 1.227.092 2.08.274 2.562.183.48.639.719 1.371.719h3.19c.995 0 1.743.283 2.241.85.499.563.748 1.277.748 2.143v10.967z"/><path fill="#878889" d="M28.688 0c-2.64 0-5.188.391-7.595 1.103.074 0 .147-.004.223-.004 14.12 0 25.567 11.446 25.567 25.567 0 14.118-11.447 25.567-25.567 25.567-.074 0-.147-.006-.222-.006a26.662 26.662 0 0 0 7.594 1.104c14.726 0 26.665-11.938 26.665-26.666C55.353 11.938 43.415 0 28.688 0z"/><path fill="#A7A8AA" d="M22.977 49.641c2.274 0 4.47-.336 6.543-.95-.063 0-.127.004-.192.004-12.167 0-22.03-9.863-22.03-22.03 0-12.165 9.863-22.03 22.03-22.03.064 0 .127.004.192.004a22.964 22.964 0 0 0-6.543-.952C10.287 3.688 0 13.976 0 26.665c0 12.689 10.287 22.976 22.977 22.976z"/></svg>